# xmcd
#
# Track frame offsets:
#	150
#	20685
#	35337
#	48455
#	68170
#	85765
#	100215
#	115630
#	129410
#	144915
#	157457
#
# Disc length: 2316 seconds
#
# Revision: 0
# Processed by: cddbd v1.4PL0 Copyright (c) Steve Scherf et al.
# Submitted via: audiograbber 1.81.03
#
DISCID=90090a0b
DTITLE=John Mooney - Late Last Night
DYEAR=1990
DGENRE=Blues
TTITLE0=Late Last Night
TTITLE1=RIP
TTITLE2=Country Gal
TTITLE3=Baby Please Don't Go
TTITLE4=Travelin' On
TTITLE5=Lovin' Mood
TTITLE6=It Don't Matter
TTITLE7=Out That Door
TTITLE8=Late On In the Evening
TTITLE9=Coma Mama
TTITLE10=Country Boy
EXTD=Bullseye Blues/Rounder CD BB 9509
EXTT0=
EXTT1=
EXTT2=
EXTT3=
EXTT4=
EXTT5=
EXTT6=
EXTT7=
EXTT8=
EXTT9=
EXTT10=
PLAYORDER=
